<?xml version="1.0" encoding="iso-8859-1"?>
<!-- Uploaded to: SVG Repo, www.svgrepo.com, Generator: SVG Repo Mixer Tools -->
<svg height="800px" width="800px" version="1.1" id="Layer_1" xmlns="http://www.w3.org/2000/svg" xmlns:xlink="http://www.w3.org/1999/xlink" 
	 viewBox="0 0 392.479 392.479" xml:space="preserve">
<path style="fill:#FFFFFF;" d="M325.953,105.891c-3.943,0-7.887,0.646-11.895,1.681c-7.887,2.133-15.127-4.978-13.705-12.347
	c0.776-3.879,1.034-7.37,1.034-10.667c0-34.651-28.121-62.772-62.772-62.772c-20.881,0-40.792,10.02-51.976,27.669
	c-2.004,3.232-9.826,8.016-16.873,1.552c-12.412-11.572-27.798-20.04-44.735-18.747C58.898,37.172,62.26,98.78,62.26,98.78
	c-0.646,4.202-3.62,7.628-7.822,8.857c-15.451,3.62-31.418,19.653-32.582,43.055c0,24.76,20.105,44.8,44.8,44.8h259.297
	c24.695,0,44.8-20.105,44.8-44.8C370.753,125.931,350.647,105.891,325.953,105.891z"/>
<g>
	<path style="fill:#194F82;" d="M323.173,84.17C322.914,37.754,285.096,0,238.615,0c-23.984,0-46.61,10.149-62.513,27.604
		c-14.61-11.119-32.388-17.131-51.071-17.131c-44.735,0-81.455,34.909-84.364,78.998c-24.307,10.214-40.663,34.327-40.663,61.22
		c0,36.719,29.931,66.586,66.586,66.586h259.297c36.719,0,66.586-29.931,66.586-66.586
		C392.538,113.002,360.862,82.489,323.173,84.17z M325.953,195.491H66.591c-24.76,0-44.8-20.105-44.8-44.8
		c1.228-23.467,17.131-39.434,32.582-43.055c4.202-1.164,7.176-4.719,7.822-8.857c0,0-3.426-61.608,62.772-66.521
		c16.937-1.228,32.323,7.24,44.735,18.747c7.046,6.465,14.739,1.681,16.873-1.552c11.184-17.648,31.16-27.669,51.976-27.669
		c34.586,0,62.772,28.121,62.772,62.772c0,3.297-0.259,6.788-1.034,10.667c-1.487,7.434,5.689,14.481,13.705,12.347
		c4.008-1.099,8.016-1.681,11.895-1.681c24.695,0,44.8,20.105,44.8,44.8C370.753,175.321,350.647,195.491,325.953,195.491z"/>
	<path style="fill:#194F82;" d="M239.779,268.929c4.073-4.396,4.267-11.119,0-15.451c-4.267-4.267-11.313-4.331-15.451,0
		c-15.968,16.679-43.119,14.222-56.178,0c-4.073-4.396-11.119-4.267-15.451,0c-4.267,4.267-4.396,11.378,0,15.451
		C189.419,302.869,228.466,281.018,239.779,268.929z"/>
	<path style="fill:#194F82;" d="M113.718,292.461c-4.267,4.267-4.396,11.378,0,15.451c67.491,61.996,141.253,27.022,165.042,0
		c3.943-4.59,4.267-11.119,0-15.451c-4.267-4.267-11.119-4.267-15.451,0c-37.042,37.042-97.228,37.042-134.206,0
		C124.967,288.259,117.985,288.259,113.718,292.461z"/>
	<path style="fill:#194F82;" d="M299.06,328.21c-56.63,56.63-148.881,56.63-205.576,0c-4.267-4.267-11.119-4.267-15.451,0
		c-4.267,4.267-4.073,11.055,0,15.451c50.618,53.85,161.875,75.442,236.348,0c4.267-4.267,4.267-11.119,0-15.451
		C310.179,323.943,303.326,323.943,299.06,328.21z"/>
</g>
<path style="fill:#56ACE0;" d="M325.953,127.677c-2.004,0-4.008,0.323-6.077,0.84l0,0c-23.079,6.4-44.994-13.446-40.986-37.042
	V91.41c0.453-2.651,0.711-4.848,0.711-6.982c0-22.562-18.36-40.986-40.986-40.986c-13.576,0-26.376,6.723-33.939,18.101l0,0
	c-11.572,17.131-35.943,19.394-50.424,4.655l0,0c-7.822-7.822-18.166-12.218-29.22-12.218c-16.097,0-29.996,9.374-36.719,22.885
	h41.762c6.141,0,11.313,4.978,11.184,11.119c-0.129,5.947-4.913,10.667-10.925,10.667H84.175l0.259,7.887
	c0.259,8.857-5.56,16.743-14.093,19.2l0,0h11.184c6.141,0,11.313,4.978,11.184,11.119c-0.129,5.947-4.913,10.667-10.925,10.667H43.9
	c-0.129,1.034-0.259,2.069-0.259,3.103c0,12.671,10.279,23.014,23.014,23.014h259.297c12.671,0,23.014-10.279,23.014-23.014
	C348.967,138.02,338.623,127.677,325.953,127.677z"/>
</svg>